<?xml version="1.0" encoding="utf-8"?>
<!-- Generator: Adobe Illustrator 17.1.0, SVG Export Plug-In . SVG Version: 6.00 Build 0)  -->
<!DOCTYPE svg PUBLIC "-//W3C//DTD SVG 1.1//EN" "http://www.w3.org/Graphics/SVG/1.1/DTD/svg11.dtd">
<svg version="1.1" id="Lager_1" xmlns="http://www.w3.org/2000/svg" xmlns:xlink="http://www.w3.org/1999/xlink" x="0px" y="0px"
	 viewBox="0 0 18.5 30.2" enable-background="new 0 0 18.5 30.2" xml:space="preserve">
<g>
	<path fill="#cacaca" d="M5.4,20v-1.5c0-1.3,0.3-2.4,0.8-3.3c0.5-0.9,1.5-2,3-3c1.4-1,2.3-1.8,2.8-2.4c0.4-0.6,0.7-1.3,0.7-2.1c0-0.9-0.3-1.5-1-2
		C11.1,5.2,10.2,4.9,9,4.9c-2,0-4.3,0.7-6.8,2L0,2.5C3,0.8,6.1,0,9.5,0c2.7,0,4.9,0.7,6.6,2c1.6,1.3,2.4,3.1,2.4,5.3
		c0,1.5-0.3,2.7-1,3.8c-0.7,1.1-1.9,2.3-3.8,3.6c-1.3,0.9-2.1,1.7-2.4,2.2c-0.3,0.5-0.5,1.1-0.5,1.9V20H5.4z M4.8,26.8
		c0-1.1,0.3-2,0.9-2.5c0.6-0.6,1.5-0.9,2.6-0.9c1.1,0,2,0.3,2.6,0.9c0.6,0.6,0.9,1.4,0.9,2.5c0,1.1-0.3,1.9-0.9,2.5
		c-0.6,0.6-1.5,0.9-2.6,0.9c-1.1,0-2-0.3-2.6-0.9C5.1,28.7,4.8,27.9,4.8,26.8z"/>
</g>
</svg>
